<mxfile host="app.diagrams.net" modified="2023-07-31T18:23:49.997Z" agent="Mozilla/5.0 (Windows NT 10.0; Win64; x64) AppleWebKit/537.36 (KHTML, like Gecko) Chrome/115.0.0.0 Safari/537.36 Edg/115.0.1901.188" etag="v-zdr7nruRVpT5eWMblJ" version="21.6.6" type="github">
  <diagram name="Page-1" id="URET93ry-vdcBQBpBAm-">
    <mxGraphModel dx="1379" dy="788" grid="1" gridSize="10" guides="1" tooltips="1" connect="1" arrows="1" fold="1" page="1" pageScale="1" pageWidth="827" pageHeight="1169" math="0" shadow="0">
      <root>
        <mxCell id="0" />
        <mxCell id="1" parent="0" />
        <mxCell id="hU67GdGGoYVL-CRxTxeh-28" style="edgeStyle=orthogonalEdgeStyle;rounded=0;orthogonalLoop=1;jettySize=auto;html=1;exitX=0.5;exitY=0;exitDx=0;exitDy=0;entryX=0.643;entryY=1.05;entryDx=0;entryDy=0;entryPerimeter=0;endArrow=baseDash;endFill=0;" edge="1" parent="1" source="hU67GdGGoYVL-CRxTxeh-1" target="hU67GdGGoYVL-CRxTxeh-2">
          <mxGeometry relative="1" as="geometry" />
        </mxCell>
        <mxCell id="hU67GdGGoYVL-CRxTxeh-32" style="edgeStyle=orthogonalEdgeStyle;rounded=0;orthogonalLoop=1;jettySize=auto;html=1;exitX=0.5;exitY=1;exitDx=0;exitDy=0;entryX=0.5;entryY=0;entryDx=0;entryDy=0;endArrow=baseDash;endFill=0;" edge="1" parent="1" source="hU67GdGGoYVL-CRxTxeh-1" target="hU67GdGGoYVL-CRxTxeh-22">
          <mxGeometry relative="1" as="geometry" />
        </mxCell>
        <mxCell id="hU67GdGGoYVL-CRxTxeh-1" value="Ward" style="rounded=0;whiteSpace=wrap;html=1;" vertex="1" parent="1">
          <mxGeometry x="180" y="220" width="90" height="40" as="geometry" />
        </mxCell>
        <mxCell id="hU67GdGGoYVL-CRxTxeh-2" value="W number" style="ellipse;whiteSpace=wrap;html=1;" vertex="1" parent="1">
          <mxGeometry x="160" y="150" width="70" height="40" as="geometry" />
        </mxCell>
        <mxCell id="hU67GdGGoYVL-CRxTxeh-30" style="edgeStyle=orthogonalEdgeStyle;rounded=0;orthogonalLoop=1;jettySize=auto;html=1;exitX=1;exitY=0;exitDx=0;exitDy=0;entryX=0.4;entryY=1;entryDx=0;entryDy=0;entryPerimeter=0;endArrow=baseDash;endFill=0;" edge="1" parent="1" source="hU67GdGGoYVL-CRxTxeh-3" target="hU67GdGGoYVL-CRxTxeh-1">
          <mxGeometry relative="1" as="geometry" />
        </mxCell>
        <mxCell id="hU67GdGGoYVL-CRxTxeh-3" value="W_name" style="ellipse;whiteSpace=wrap;html=1;" vertex="1" parent="1">
          <mxGeometry x="100" y="290" width="70" height="40" as="geometry" />
        </mxCell>
        <mxCell id="hU67GdGGoYVL-CRxTxeh-29" style="edgeStyle=orthogonalEdgeStyle;rounded=0;orthogonalLoop=1;jettySize=auto;html=1;exitX=1;exitY=0.5;exitDx=0;exitDy=0;entryX=0;entryY=0.5;entryDx=0;entryDy=0;endArrow=baseDash;endFill=0;" edge="1" parent="1" source="hU67GdGGoYVL-CRxTxeh-4" target="hU67GdGGoYVL-CRxTxeh-1">
          <mxGeometry relative="1" as="geometry" />
        </mxCell>
        <mxCell id="hU67GdGGoYVL-CRxTxeh-4" value="Number of patients" style="ellipse;whiteSpace=wrap;html=1;" vertex="1" parent="1">
          <mxGeometry x="80" y="200" width="70" height="40" as="geometry" />
        </mxCell>
        <mxCell id="hU67GdGGoYVL-CRxTxeh-36" style="edgeStyle=orthogonalEdgeStyle;rounded=0;orthogonalLoop=1;jettySize=auto;html=1;exitX=0.75;exitY=1;exitDx=0;exitDy=0;entryX=0.5;entryY=0;entryDx=0;entryDy=0;endArrow=baseDash;endFill=0;" edge="1" parent="1" source="hU67GdGGoYVL-CRxTxeh-5" target="hU67GdGGoYVL-CRxTxeh-9">
          <mxGeometry relative="1" as="geometry" />
        </mxCell>
        <mxCell id="hU67GdGGoYVL-CRxTxeh-37" style="edgeStyle=orthogonalEdgeStyle;rounded=0;orthogonalLoop=1;jettySize=auto;html=1;exitX=1;exitY=0.5;exitDx=0;exitDy=0;entryX=0.445;entryY=-0.075;entryDx=0;entryDy=0;entryPerimeter=0;endArrow=baseDash;endFill=0;" edge="1" parent="1" source="hU67GdGGoYVL-CRxTxeh-5" target="hU67GdGGoYVL-CRxTxeh-10">
          <mxGeometry relative="1" as="geometry" />
        </mxCell>
        <mxCell id="hU67GdGGoYVL-CRxTxeh-39" style="edgeStyle=orthogonalEdgeStyle;rounded=0;orthogonalLoop=1;jettySize=auto;html=1;exitX=1;exitY=0;exitDx=0;exitDy=0;entryX=0;entryY=0.5;entryDx=0;entryDy=0;endArrow=baseDash;endFill=0;" edge="1" parent="1" source="hU67GdGGoYVL-CRxTxeh-5" target="hU67GdGGoYVL-CRxTxeh-24">
          <mxGeometry relative="1" as="geometry" />
        </mxCell>
        <mxCell id="hU67GdGGoYVL-CRxTxeh-5" value="Doctor" style="rounded=0;whiteSpace=wrap;html=1;" vertex="1" parent="1">
          <mxGeometry x="210" y="450" width="90" height="40" as="geometry" />
        </mxCell>
        <mxCell id="hU67GdGGoYVL-CRxTxeh-33" style="edgeStyle=orthogonalEdgeStyle;rounded=0;orthogonalLoop=1;jettySize=auto;html=1;exitX=0.5;exitY=1;exitDx=0;exitDy=0;entryX=0.25;entryY=0;entryDx=0;entryDy=0;endArrow=baseDash;endFill=0;" edge="1" parent="1" source="hU67GdGGoYVL-CRxTxeh-6" target="hU67GdGGoYVL-CRxTxeh-5">
          <mxGeometry relative="1" as="geometry" />
        </mxCell>
        <mxCell id="hU67GdGGoYVL-CRxTxeh-6" value="Doc_ID" style="ellipse;whiteSpace=wrap;html=1;" vertex="1" parent="1">
          <mxGeometry x="140" y="380" width="70" height="40" as="geometry" />
        </mxCell>
        <mxCell id="hU67GdGGoYVL-CRxTxeh-34" style="edgeStyle=orthogonalEdgeStyle;rounded=0;orthogonalLoop=1;jettySize=auto;html=1;exitX=1;exitY=0.5;exitDx=0;exitDy=0;entryX=0;entryY=0.5;entryDx=0;entryDy=0;endArrow=baseDash;endFill=0;" edge="1" parent="1" source="hU67GdGGoYVL-CRxTxeh-7" target="hU67GdGGoYVL-CRxTxeh-5">
          <mxGeometry relative="1" as="geometry" />
        </mxCell>
        <mxCell id="hU67GdGGoYVL-CRxTxeh-7" value="Doc_Address" style="ellipse;whiteSpace=wrap;html=1;" vertex="1" parent="1">
          <mxGeometry x="100" y="450" width="70" height="40" as="geometry" />
        </mxCell>
        <mxCell id="hU67GdGGoYVL-CRxTxeh-35" style="edgeStyle=orthogonalEdgeStyle;rounded=0;orthogonalLoop=1;jettySize=auto;html=1;exitX=1;exitY=0.5;exitDx=0;exitDy=0;entryX=0.25;entryY=1;entryDx=0;entryDy=0;endArrow=baseDash;endFill=0;" edge="1" parent="1" source="hU67GdGGoYVL-CRxTxeh-8" target="hU67GdGGoYVL-CRxTxeh-5">
          <mxGeometry relative="1" as="geometry" />
        </mxCell>
        <mxCell id="hU67GdGGoYVL-CRxTxeh-8" value="Doc_Tele" style="ellipse;whiteSpace=wrap;html=1;" vertex="1" parent="1">
          <mxGeometry x="130" y="530" width="70" height="40" as="geometry" />
        </mxCell>
        <mxCell id="hU67GdGGoYVL-CRxTxeh-9" value="Doc_name" style="ellipse;whiteSpace=wrap;html=1;" vertex="1" parent="1">
          <mxGeometry x="230" y="560" width="70" height="40" as="geometry" />
        </mxCell>
        <mxCell id="hU67GdGGoYVL-CRxTxeh-10" value="Doc_specialization" style="ellipse;whiteSpace=wrap;html=1;" vertex="1" parent="1">
          <mxGeometry x="320" y="540" width="110" height="40" as="geometry" />
        </mxCell>
        <mxCell id="hU67GdGGoYVL-CRxTxeh-40" style="edgeStyle=orthogonalEdgeStyle;rounded=0;orthogonalLoop=1;jettySize=auto;html=1;exitX=0.25;exitY=0;exitDx=0;exitDy=0;entryX=0.964;entryY=0.75;entryDx=0;entryDy=0;entryPerimeter=0;endArrow=baseDash;endFill=0;" edge="1" parent="1" source="hU67GdGGoYVL-CRxTxeh-11" target="hU67GdGGoYVL-CRxTxeh-16">
          <mxGeometry relative="1" as="geometry" />
        </mxCell>
        <mxCell id="hU67GdGGoYVL-CRxTxeh-41" style="edgeStyle=orthogonalEdgeStyle;rounded=0;orthogonalLoop=1;jettySize=auto;html=1;exitX=0.5;exitY=0;exitDx=0;exitDy=0;entryX=0.5;entryY=1;entryDx=0;entryDy=0;endArrow=baseDash;endFill=0;" edge="1" parent="1" source="hU67GdGGoYVL-CRxTxeh-11" target="hU67GdGGoYVL-CRxTxeh-12">
          <mxGeometry relative="1" as="geometry" />
        </mxCell>
        <mxCell id="hU67GdGGoYVL-CRxTxeh-42" style="edgeStyle=orthogonalEdgeStyle;rounded=0;orthogonalLoop=1;jettySize=auto;html=1;exitX=0.75;exitY=0;exitDx=0;exitDy=0;entryX=0;entryY=1;entryDx=0;entryDy=0;endArrow=baseDash;endFill=0;" edge="1" parent="1" source="hU67GdGGoYVL-CRxTxeh-11" target="hU67GdGGoYVL-CRxTxeh-13">
          <mxGeometry relative="1" as="geometry" />
        </mxCell>
        <mxCell id="hU67GdGGoYVL-CRxTxeh-43" style="edgeStyle=orthogonalEdgeStyle;rounded=0;orthogonalLoop=1;jettySize=auto;html=1;exitX=1;exitY=0.5;exitDx=0;exitDy=0;entryX=0;entryY=0.5;entryDx=0;entryDy=0;endArrow=baseDash;endFill=0;" edge="1" parent="1" source="hU67GdGGoYVL-CRxTxeh-11" target="hU67GdGGoYVL-CRxTxeh-14">
          <mxGeometry relative="1" as="geometry" />
        </mxCell>
        <mxCell id="hU67GdGGoYVL-CRxTxeh-44" style="edgeStyle=orthogonalEdgeStyle;rounded=0;orthogonalLoop=1;jettySize=auto;html=1;exitX=0.5;exitY=1;exitDx=0;exitDy=0;entryX=0.257;entryY=0.05;entryDx=0;entryDy=0;entryPerimeter=0;endArrow=baseDash;endFill=0;" edge="1" parent="1" source="hU67GdGGoYVL-CRxTxeh-11" target="hU67GdGGoYVL-CRxTxeh-15">
          <mxGeometry relative="1" as="geometry" />
        </mxCell>
        <mxCell id="hU67GdGGoYVL-CRxTxeh-11" value="Patient" style="rounded=0;whiteSpace=wrap;html=1;" vertex="1" parent="1">
          <mxGeometry x="580" y="180" width="90" height="40" as="geometry" />
        </mxCell>
        <mxCell id="hU67GdGGoYVL-CRxTxeh-12" value="Add_num" style="ellipse;whiteSpace=wrap;html=1;" vertex="1" parent="1">
          <mxGeometry x="577.5" y="80" width="70" height="40" as="geometry" />
        </mxCell>
        <mxCell id="hU67GdGGoYVL-CRxTxeh-13" value="P_address" style="ellipse;whiteSpace=wrap;html=1;" vertex="1" parent="1">
          <mxGeometry x="670" y="120" width="70" height="40" as="geometry" />
        </mxCell>
        <mxCell id="hU67GdGGoYVL-CRxTxeh-14" value="P_name" style="ellipse;whiteSpace=wrap;html=1;" vertex="1" parent="1">
          <mxGeometry x="700" y="190" width="70" height="40" as="geometry" />
        </mxCell>
        <mxCell id="hU67GdGGoYVL-CRxTxeh-15" value="P_telephone" style="ellipse;whiteSpace=wrap;html=1;" vertex="1" parent="1">
          <mxGeometry x="680" y="260" width="70" height="40" as="geometry" />
        </mxCell>
        <mxCell id="hU67GdGGoYVL-CRxTxeh-16" value="Doctor_Admission" style="ellipse;whiteSpace=wrap;html=1;" vertex="1" parent="1">
          <mxGeometry x="455" y="120" width="110" height="40" as="geometry" />
        </mxCell>
        <mxCell id="hU67GdGGoYVL-CRxTxeh-47" style="edgeStyle=orthogonalEdgeStyle;rounded=0;orthogonalLoop=1;jettySize=auto;html=1;exitX=0.25;exitY=1;exitDx=0;exitDy=0;entryX=0.5;entryY=0;entryDx=0;entryDy=0;endArrow=baseDash;endFill=0;" edge="1" parent="1" source="hU67GdGGoYVL-CRxTxeh-17" target="hU67GdGGoYVL-CRxTxeh-21">
          <mxGeometry relative="1" as="geometry" />
        </mxCell>
        <mxCell id="hU67GdGGoYVL-CRxTxeh-48" style="edgeStyle=orthogonalEdgeStyle;rounded=0;orthogonalLoop=1;jettySize=auto;html=1;exitX=0.75;exitY=1;exitDx=0;exitDy=0;entryX=0.5;entryY=0;entryDx=0;entryDy=0;endArrow=baseDash;endFill=0;" edge="1" parent="1" source="hU67GdGGoYVL-CRxTxeh-17" target="hU67GdGGoYVL-CRxTxeh-18">
          <mxGeometry relative="1" as="geometry" />
        </mxCell>
        <mxCell id="hU67GdGGoYVL-CRxTxeh-49" style="edgeStyle=orthogonalEdgeStyle;rounded=0;orthogonalLoop=1;jettySize=auto;html=1;exitX=1;exitY=0.5;exitDx=0;exitDy=0;entryX=0;entryY=0;entryDx=0;entryDy=0;endArrow=baseDash;endFill=0;" edge="1" parent="1" source="hU67GdGGoYVL-CRxTxeh-17" target="hU67GdGGoYVL-CRxTxeh-19">
          <mxGeometry relative="1" as="geometry" />
        </mxCell>
        <mxCell id="hU67GdGGoYVL-CRxTxeh-17" value="Treatment" style="rounded=0;whiteSpace=wrap;html=1;" vertex="1" parent="1">
          <mxGeometry x="610" y="490" width="90" height="40" as="geometry" />
        </mxCell>
        <mxCell id="hU67GdGGoYVL-CRxTxeh-18" value="T_num" style="ellipse;whiteSpace=wrap;html=1;" vertex="1" parent="1">
          <mxGeometry x="680" y="585" width="70" height="40" as="geometry" />
        </mxCell>
        <mxCell id="hU67GdGGoYVL-CRxTxeh-19" value="Description" style="ellipse;whiteSpace=wrap;html=1;" vertex="1" parent="1">
          <mxGeometry x="730" y="520" width="70" height="40" as="geometry" />
        </mxCell>
        <mxCell id="hU67GdGGoYVL-CRxTxeh-21" value="" style="ellipse;whiteSpace=wrap;html=1;" vertex="1" parent="1">
          <mxGeometry x="565" y="565" width="95" height="70" as="geometry" />
        </mxCell>
        <mxCell id="hU67GdGGoYVL-CRxTxeh-20" value="Dosage" style="ellipse;whiteSpace=wrap;html=1;" vertex="1" parent="1">
          <mxGeometry x="580" y="580" width="70" height="40" as="geometry" />
        </mxCell>
        <mxCell id="hU67GdGGoYVL-CRxTxeh-31" style="edgeStyle=orthogonalEdgeStyle;rounded=0;orthogonalLoop=1;jettySize=auto;html=1;exitX=0.5;exitY=1;exitDx=0;exitDy=0;entryX=0.75;entryY=0;entryDx=0;entryDy=0;endArrow=baseDash;endFill=0;" edge="1" parent="1" source="hU67GdGGoYVL-CRxTxeh-22" target="hU67GdGGoYVL-CRxTxeh-5">
          <mxGeometry relative="1" as="geometry" />
        </mxCell>
        <mxCell id="hU67GdGGoYVL-CRxTxeh-22" value="Treat" style="rhombus;whiteSpace=wrap;html=1;" vertex="1" parent="1">
          <mxGeometry x="250" y="310" width="70" height="60" as="geometry" />
        </mxCell>
        <mxCell id="hU67GdGGoYVL-CRxTxeh-26" style="edgeStyle=orthogonalEdgeStyle;rounded=0;orthogonalLoop=1;jettySize=auto;html=1;exitX=1;exitY=0.5;exitDx=0;exitDy=0;entryX=0;entryY=0.5;entryDx=0;entryDy=0;endArrow=baseDash;endFill=0;" edge="1" parent="1" source="hU67GdGGoYVL-CRxTxeh-23" target="hU67GdGGoYVL-CRxTxeh-11">
          <mxGeometry relative="1" as="geometry" />
        </mxCell>
        <mxCell id="hU67GdGGoYVL-CRxTxeh-27" style="edgeStyle=orthogonalEdgeStyle;rounded=0;orthogonalLoop=1;jettySize=auto;html=1;exitX=0;exitY=0.5;exitDx=0;exitDy=0;endArrow=baseDash;endFill=0;" edge="1" parent="1" source="hU67GdGGoYVL-CRxTxeh-23" target="hU67GdGGoYVL-CRxTxeh-1">
          <mxGeometry relative="1" as="geometry" />
        </mxCell>
        <mxCell id="hU67GdGGoYVL-CRxTxeh-23" value="Host" style="rhombus;whiteSpace=wrap;html=1;" vertex="1" parent="1">
          <mxGeometry x="390" y="190" width="70" height="60" as="geometry" />
        </mxCell>
        <mxCell id="hU67GdGGoYVL-CRxTxeh-38" style="edgeStyle=orthogonalEdgeStyle;rounded=0;orthogonalLoop=1;jettySize=auto;html=1;exitX=1;exitY=0;exitDx=0;exitDy=0;entryX=0;entryY=0.75;entryDx=0;entryDy=0;endArrow=baseDash;endFill=0;" edge="1" parent="1" source="hU67GdGGoYVL-CRxTxeh-24" target="hU67GdGGoYVL-CRxTxeh-11">
          <mxGeometry relative="1" as="geometry" />
        </mxCell>
        <mxCell id="hU67GdGGoYVL-CRxTxeh-24" value="Have" style="rhombus;whiteSpace=wrap;html=1;" vertex="1" parent="1">
          <mxGeometry x="410" y="350" width="70" height="60" as="geometry" />
        </mxCell>
        <mxCell id="hU67GdGGoYVL-CRxTxeh-45" style="edgeStyle=orthogonalEdgeStyle;rounded=0;orthogonalLoop=1;jettySize=auto;html=1;exitX=0.5;exitY=0;exitDx=0;exitDy=0;endArrow=baseDash;endFill=0;" edge="1" parent="1" source="hU67GdGGoYVL-CRxTxeh-25">
          <mxGeometry relative="1" as="geometry">
            <mxPoint x="610" y="220" as="targetPoint" />
          </mxGeometry>
        </mxCell>
        <mxCell id="hU67GdGGoYVL-CRxTxeh-46" style="edgeStyle=orthogonalEdgeStyle;rounded=0;orthogonalLoop=1;jettySize=auto;html=1;exitX=0.5;exitY=1;exitDx=0;exitDy=0;entryX=0.411;entryY=-0.075;entryDx=0;entryDy=0;entryPerimeter=0;endArrow=baseDash;endFill=0;" edge="1" parent="1" source="hU67GdGGoYVL-CRxTxeh-25" target="hU67GdGGoYVL-CRxTxeh-17">
          <mxGeometry relative="1" as="geometry" />
        </mxCell>
        <mxCell id="hU67GdGGoYVL-CRxTxeh-25" value="Have" style="rhombus;whiteSpace=wrap;html=1;" vertex="1" parent="1">
          <mxGeometry x="600" y="370" width="70" height="60" as="geometry" />
        </mxCell>
      </root>
    </mxGraphModel>
  </diagram>
</mxfile>
